<svg width="232" height="52" viewBox="0 0 232 52" fill="none" xmlns="http://www.w3.org/2000/svg">
<path d="M52.3695 12.0267C52.1657 2.38821 52.153 4.47163 52.3515 1.46761C52.3633 1.28951 52.2288 1.13562 52.0508 1.12345C37.6985 0.14174 37.1546 0.0285459 36.0425 0.0285459C16.4631 0.0269756 26.7423 -0.292977 0.607966 1.24868C0.430389 1.25928 0.294687 1.41108 0.303978 1.58853C1.98828 33.9033 1.92677 28.6318 1.06637 50.1687C1.06022 50.3234 1.16451 50.4606 1.31526 50.4962C3.27123 50.9587 2.92458 50.7767 7.48727 50.7799C7.49473 50.7822 16.0378 49.8493 16.0455 49.8485C16.0858 49.8552 27.8591 51.7874 27.9001 51.7874C27.9091 51.7874 27.918 51.787 27.9271 51.7863C41.7251 50.63 37.7701 50.9094 46.6718 50.416L51.8988 51.4732C52.1021 51.5141 52.2886 51.3569 52.2864 51.1526C52.1732 40.6291 52.3695 12.0267 52.3695 12.0267ZM31.152 11.2596C31.1908 11.2502 31.2465 11.2366 31.3158 11.2181L35.0362 10.3797C36.9419 9.90219 37.2235 9.78585 38.8543 9.01914H38.8544C39.6073 9.28034 41.6718 10.4227 42.1951 11.0786C42.541 11.5128 42.5182 11.6094 42.4095 12.0743C42.3885 12.1636 42.3646 12.2663 42.3394 12.3876C42.3377 12.3956 42.3364 12.4038 42.3353 12.4119L41.5171 18.8141C40.7076 18.844 40.6401 18.7819 40.4162 18.5758C40.3238 18.4905 40.2088 18.3845 40.006 18.2486C38.775 17.4223 34.7463 14.4415 33.4742 13.4154L30.9735 11.4062L30.9936 11.3867C31.0207 11.3597 31.0448 11.3235 31.0608 11.2888C31.0733 11.279 31.1228 11.2668 31.152 11.2596ZM36.9496 43.4943C36.8764 43.4212 5.68664 10.3561 5.66374 10.3105L8.38863 8.22011L46.4675 33.4343C46.1528 34.3361 46.0272 35.3709 45.838 36.2303C45.169 39.2653 44.3088 40.5933 42.9635 43.4769C41.038 43.5535 37.0821 43.5387 36.9496 43.4943ZM8.57707 34.5486C8.92764 33.706 9.4096 32.3505 9.81474 31.6639C11.8064 32.9085 19.5868 40.726 20.2635 41.7815C19.8887 41.9206 18.2789 42.1598 15.6042 43.2283C13.9096 43.9043 12.3095 44.5456 10.7639 44.0212C10.6097 43.9692 10.1988 43.6205 9.58953 43.0945C8.4767 42.1339 7.46895 41.4418 6.88296 41.0959C5.88345 40.5059 6.03917 40.6303 8.57707 34.5486Z" fill="#EA473B"/>
<path d="M4.28382 34.6173C4.03963 22.0215 4.31234 28.8828 2.86504 1.1156L0.607965 1.24869C0.430389 1.25928 0.294687 1.41108 0.303978 1.58853L1.50566 24.6443C1.74435 36.96 1.80965 31.5629 1.06637 50.1687C1.06022 50.3234 1.16451 50.4606 1.31526 50.4962C2.41906 50.7573 2.87786 50.8158 3.65438 50.8158C3.63004 50.7327 3.60321 51.6509 4.28382 34.6173Z" fill="#D82B27"/>
<path d="M21.8834 42.4932C21.8834 42.4932 23.2033 42.0389 22.1183 40.8481C17.6897 35.9088 14.9919 34.1194 12.4277 31.3062C11.3561 30.1461 9.81485 31.6638 9.81485 31.6638C19.8364 40.572 17.8287 39.2825 19.5952 40.9881C19.8297 41.2145 20.0147 41.3932 20.2636 41.7814C20.2173 41.7985 20.0125 41.8502 19.7291 41.9218C15.5596 42.9739 14.9341 43.6881 13.0723 44.0871C14.8098 45.5037 17.8735 43.7754 20.0577 43.0233C20.5799 42.8437 21.2718 42.653 21.8834 42.4932Z" fill="#D82B27"/>
<path d="M48.3634 30.8118C48.3633 30.8116 11.9589 7.59552 11.9589 7.59552C10.7393 6.81782 9.424 7.19208 8.38876 8.22011L46.4677 33.4343C46.153 34.3361 46.0273 35.3709 45.8381 36.2303C45.1692 39.2653 44.3089 40.5933 42.9636 43.4769C42.9636 43.4769 46.4123 44.1399 47.4638 41.806C49.9309 36.5553 49.3613 35.565 49.9491 33.9071C49.8793 32.972 50.0093 31.8615 48.3634 30.8118Z" fill="#D82B27"/>
<path d="M42.3396 12.3876C42.3379 12.3956 42.3366 12.4039 42.3354 12.412L41.5173 18.8142C41.5173 18.8142 44.7542 20.8134 45.1609 17.5262C45.1611 17.5252 45.1612 17.5241 45.1613 17.5231L45.8309 12.1109C45.8321 12.1026 45.8334 12.0942 45.8352 12.086C45.8608 11.9619 45.8854 11.857 45.9067 11.7658C46.0178 11.2905 46.0411 11.1917 45.6875 10.7478C45.3159 10.282 43.6505 9.05241 42.4099 8.25508C41.2388 7.46992 39.848 8.41407 39.848 8.41407C39.5009 8.68011 39.1906 8.91252 38.8544 9.01917C39.7049 9.47914 41.8597 10.6583 42.1951 11.0786C42.541 11.5128 42.5182 11.6094 42.4095 12.0744C42.3885 12.1637 42.3646 12.2665 42.3396 12.3876Z" fill="#D82B27"/>
<path d="M64.08 31.19C64.3 31.21 64.55 31.23 64.83 31.25C65.13 31.25 65.48 31.25 65.88 31.25C68.22 31.25 69.95 30.66 71.07 29.48C72.21 28.3 72.78 26.67 72.78 24.59C72.78 22.41 72.24 20.76 71.16 19.64C70.08 18.52 68.37 17.96 66.03 17.96C65.71 17.96 65.38 17.97 65.04 17.99C64.7 17.99 64.38 18.01 64.08 18.05V31.19ZM77.61 24.59C77.61 26.39 77.33 27.96 76.77 29.3C76.21 30.64 75.41 31.75 74.37 32.63C73.35 33.51 72.1 34.17 70.62 34.61C69.14 35.05 67.48 35.27 65.64 35.27C64.8 35.27 63.82 35.23 62.7 35.15C61.58 35.09 60.48 34.95 59.4 34.73V14.48C60.48 14.28 61.6 14.15 62.76 14.09C63.94 14.01 64.95 13.97 65.79 13.97C67.57 13.97 69.18 14.17 70.62 14.57C72.08 14.97 73.33 15.6 74.37 16.46C75.41 17.32 76.21 18.42 76.77 19.76C77.33 21.1 77.61 22.71 77.61 24.59ZM95.9791 27.08C95.9791 28.32 95.7991 29.46 95.4391 30.5C95.0791 31.52 94.5591 32.4 93.8791 33.14C93.1991 33.86 92.3791 34.42 91.4191 34.82C90.4791 35.22 89.4191 35.42 88.2391 35.42C87.0791 35.42 86.0191 35.22 85.0591 34.82C84.1191 34.42 83.3091 33.86 82.6291 33.14C81.9491 32.4 81.4191 31.52 81.0391 30.5C80.6591 29.46 80.4691 28.32 80.4691 27.08C80.4691 25.84 80.6591 24.71 81.0391 23.69C81.4391 22.67 81.9791 21.8 82.6591 21.08C83.3591 20.36 84.1791 19.8 85.1191 19.4C86.0791 19 87.1191 18.8 88.2391 18.8C89.3791 18.8 90.4191 19 91.3591 19.4C92.3191 19.8 93.1391 20.36 93.8191 21.08C94.4991 21.8 95.0291 22.67 95.4091 23.69C95.7891 24.71 95.9791 25.84 95.9791 27.08ZM91.4191 27.08C91.4191 25.7 91.1391 24.62 90.5791 23.84C90.0391 23.04 89.2591 22.64 88.2391 22.64C87.2191 22.64 86.4291 23.04 85.8691 23.84C85.3091 24.62 85.0291 25.7 85.0291 27.08C85.0291 28.46 85.3091 29.56 85.8691 30.38C86.4291 31.18 87.2191 31.58 88.2391 31.58C89.2591 31.58 90.0391 31.18 90.5791 30.38C91.1391 29.56 91.4191 28.46 91.4191 27.08ZM99.2918 15.29L103.762 14.57V19.22H109.132V22.94H103.762V28.49C103.762 29.43 103.922 30.18 104.242 30.74C104.582 31.3 105.252 31.58 106.252 31.58C106.732 31.58 107.222 31.54 107.722 31.46C108.242 31.36 108.712 31.23 109.132 31.07L109.762 34.55C109.222 34.77 108.622 34.96 107.962 35.12C107.302 35.28 106.492 35.36 105.532 35.36C104.312 35.36 103.302 35.2 102.502 34.88C101.702 34.54 101.062 34.08 100.582 33.5C100.102 32.9 99.7618 32.18 99.5618 31.34C99.3818 30.5 99.2918 29.57 99.2918 28.55V15.29ZM118.216 31.88C118.656 31.88 119.076 31.87 119.476 31.85C119.876 31.83 120.196 31.8 120.436 31.76V28.37C120.256 28.33 119.986 28.29 119.626 28.25C119.266 28.21 118.936 28.19 118.636 28.19C118.216 28.19 117.816 28.22 117.436 28.28C117.076 28.32 116.756 28.41 116.476 28.55C116.196 28.69 115.976 28.88 115.816 29.12C115.656 29.36 115.576 29.66 115.576 30.02C115.576 30.72 115.806 31.21 116.266 31.49C116.746 31.75 117.396 31.88 118.216 31.88ZM117.856 18.8C119.176 18.8 120.276 18.95 121.156 19.25C122.036 19.55 122.736 19.98 123.256 20.54C123.796 21.1 124.176 21.78 124.396 22.58C124.616 23.38 124.726 24.27 124.726 25.25V34.55C124.086 34.69 123.196 34.85 122.056 35.03C120.916 35.23 119.536 35.33 117.916 35.33C116.896 35.33 115.966 35.24 115.126 35.06C114.306 34.88 113.596 34.59 112.996 34.19C112.396 33.77 111.936 33.23 111.616 32.57C111.296 31.91 111.136 31.1 111.136 30.14C111.136 29.22 111.316 28.44 111.676 27.8C112.056 27.16 112.556 26.65 113.176 26.27C113.796 25.89 114.506 25.62 115.306 25.46C116.106 25.28 116.936 25.19 117.796 25.19C118.376 25.19 118.886 25.22 119.326 25.28C119.786 25.32 120.156 25.38 120.436 25.46V25.04C120.436 24.28 120.206 23.67 119.746 23.21C119.286 22.75 118.486 22.52 117.346 22.52C116.586 22.52 115.836 22.58 115.096 22.7C114.356 22.8 113.716 22.95 113.176 23.15L112.606 19.55C112.866 19.47 113.186 19.39 113.566 19.31C113.966 19.21 114.396 19.13 114.856 19.07C115.316 18.99 115.796 18.93 116.296 18.89C116.816 18.83 117.336 18.8 117.856 18.8ZM134.738 31.43C135.398 31.43 135.938 31.38 136.358 31.28C136.798 31.16 137.148 31.01 137.408 30.83C137.668 30.63 137.848 30.4 137.948 30.14C138.048 29.88 138.098 29.59 138.098 29.27C138.098 28.59 137.778 28.03 137.138 27.59C136.498 27.13 135.398 26.64 133.838 26.12C133.158 25.88 132.478 25.61 131.798 25.31C131.118 24.99 130.508 24.6 129.968 24.14C129.428 23.66 128.988 23.09 128.648 22.43C128.308 21.75 128.138 20.93 128.138 19.97C128.138 19.01 128.318 18.15 128.678 17.39C129.038 16.61 129.548 15.95 130.208 15.41C130.868 14.87 131.668 14.46 132.608 14.18C133.548 13.88 134.608 13.73 135.788 13.73C137.188 13.73 138.398 13.88 139.418 14.18C140.438 14.48 141.278 14.81 141.938 15.17L140.588 18.86C140.008 18.56 139.358 18.3 138.638 18.08C137.938 17.84 137.088 17.72 136.088 17.72C134.968 17.72 134.158 17.88 133.658 18.2C133.178 18.5 132.938 18.97 132.938 19.61C132.938 19.99 133.028 20.31 133.208 20.57C133.388 20.83 133.638 21.07 133.958 21.29C134.298 21.49 134.678 21.68 135.098 21.86C135.538 22.02 136.018 22.19 136.538 22.37C137.618 22.77 138.558 23.17 139.358 23.57C140.158 23.95 140.818 24.4 141.338 24.92C141.878 25.44 142.278 26.05 142.538 26.75C142.798 27.45 142.928 28.3 142.928 29.3C142.928 31.24 142.248 32.75 140.888 33.83C139.528 34.89 137.478 35.42 134.738 35.42C133.818 35.42 132.988 35.36 132.248 35.24C131.508 35.14 130.848 35.01 130.268 34.85C129.708 34.69 129.218 34.52 128.798 34.34C128.398 34.16 128.058 33.99 127.778 33.83L129.098 30.11C129.718 30.45 130.478 30.76 131.378 31.04C132.298 31.3 133.418 31.43 134.738 31.43ZM145.479 27.23C145.479 25.83 145.689 24.61 146.109 23.57C146.549 22.51 147.119 21.63 147.819 20.93C148.519 20.23 149.319 19.7 150.219 19.34C151.139 18.98 152.079 18.8 153.039 18.8C155.279 18.8 157.049 19.49 158.349 20.87C159.649 22.23 160.299 24.24 160.299 26.9C160.299 27.16 160.289 27.45 160.269 27.77C160.249 28.07 160.229 28.34 160.209 28.58H150.069C150.169 29.5 150.599 30.23 151.359 30.77C152.119 31.31 153.139 31.58 154.419 31.58C155.239 31.58 156.039 31.51 156.819 31.37C157.619 31.21 158.269 31.02 158.769 30.8L159.369 34.43C159.129 34.55 158.809 34.67 158.409 34.79C158.009 34.91 157.559 35.01 157.059 35.09C156.579 35.19 156.059 35.27 155.499 35.33C154.939 35.39 154.379 35.42 153.819 35.42C152.399 35.42 151.159 35.21 150.099 34.79C149.059 34.37 148.189 33.8 147.489 33.08C146.809 32.34 146.299 31.47 145.959 30.47C145.639 29.47 145.479 28.39 145.479 27.23ZM155.979 25.52C155.959 25.14 155.889 24.77 155.769 24.41C155.669 24.05 155.499 23.73 155.259 23.45C155.039 23.17 154.749 22.94 154.389 22.76C154.049 22.58 153.619 22.49 153.099 22.49C152.599 22.49 152.169 22.58 151.809 22.76C151.449 22.92 151.149 23.14 150.909 23.42C150.669 23.7 150.479 24.03 150.339 24.41C150.219 24.77 150.129 25.14 150.069 25.52H155.979ZM162.998 27.23C162.998 25.83 163.208 24.61 163.628 23.57C164.068 22.51 164.638 21.63 165.338 20.93C166.038 20.23 166.838 19.7 167.738 19.34C168.658 18.98 169.598 18.8 170.558 18.8C172.798 18.8 174.568 19.49 175.868 20.87C177.168 22.23 177.818 24.24 177.818 26.9C177.818 27.16 177.808 27.45 177.788 27.77C177.768 28.07 177.748 28.34 177.728 28.58H167.588C167.688 29.5 168.118 30.23 168.878 30.77C169.638 31.31 170.658 31.58 171.938 31.58C172.758 31.58 173.558 31.51 174.338 31.37C175.138 31.21 175.788 31.02 176.288 30.8L176.888 34.43C176.648 34.55 176.328 34.67 175.928 34.79C175.528 34.91 175.078 35.01 174.578 35.09C174.098 35.19 173.578 35.27 173.018 35.33C172.458 35.39 171.898 35.42 171.338 35.42C169.918 35.42 168.678 35.21 167.618 34.79C166.578 34.37 165.708 33.8 165.008 33.08C164.328 32.34 163.818 31.47 163.478 30.47C163.158 29.47 162.998 28.39 162.998 27.23ZM173.498 25.52C173.478 25.14 173.408 24.77 173.288 24.41C173.188 24.05 173.018 23.73 172.778 23.45C172.558 23.17 172.268 22.94 171.908 22.76C171.568 22.58 171.138 22.49 170.618 22.49C170.118 22.49 169.688 22.58 169.328 22.76C168.968 22.92 168.668 23.14 168.428 23.42C168.188 23.7 167.998 24.03 167.858 24.41C167.738 24.77 167.648 25.14 167.588 25.52H173.498ZM185.738 24.92C186.178 24.44 186.628 23.94 187.088 23.42C187.568 22.9 188.028 22.39 188.468 21.89C188.908 21.37 189.318 20.88 189.698 20.42C190.098 19.96 190.438 19.56 190.718 19.22H196.028C194.968 20.44 193.928 21.61 192.908 22.73C191.908 23.83 190.808 24.97 189.608 26.15C190.208 26.69 190.828 27.34 191.468 28.1C192.108 28.84 192.728 29.61 193.328 30.41C193.928 31.21 194.478 32.01 194.978 32.81C195.478 33.61 195.898 34.34 196.238 35H191.108C190.788 34.48 190.418 33.91 189.998 33.29C189.598 32.65 189.168 32.02 188.708 31.4C188.248 30.76 187.758 30.15 187.238 29.57C186.738 28.99 186.238 28.5 185.738 28.1V35H181.268V12.44L185.738 11.72V24.92ZM196.807 27.23C196.807 25.83 197.017 24.61 197.437 23.57C197.877 22.51 198.447 21.63 199.147 20.93C199.847 20.23 200.647 19.7 201.547 19.34C202.467 18.98 203.407 18.8 204.367 18.8C206.607 18.8 208.377 19.49 209.677 20.87C210.977 22.23 211.627 24.24 211.627 26.9C211.627 27.16 211.617 27.45 211.597 27.77C211.577 28.07 211.557 28.34 211.537 28.58H201.397C201.497 29.5 201.927 30.23 202.687 30.77C203.447 31.31 204.467 31.58 205.747 31.58C206.567 31.58 207.367 31.51 208.147 31.37C208.947 31.21 209.597 31.02 210.097 30.8L210.697 34.43C210.457 34.55 210.137 34.67 209.737 34.79C209.337 34.91 208.887 35.01 208.387 35.09C207.907 35.19 207.387 35.27 206.827 35.33C206.267 35.39 205.707 35.42 205.147 35.42C203.727 35.42 202.487 35.21 201.427 34.79C200.387 34.37 199.517 33.8 198.817 33.08C198.137 32.34 197.627 31.47 197.287 30.47C196.967 29.47 196.807 28.39 196.807 27.23ZM207.307 25.52C207.287 25.14 207.217 24.77 207.097 24.41C206.997 24.05 206.827 23.73 206.587 23.45C206.367 23.17 206.077 22.94 205.717 22.76C205.377 22.58 204.947 22.49 204.427 22.49C203.927 22.49 203.497 22.58 203.137 22.76C202.777 22.92 202.477 23.14 202.237 23.42C201.997 23.7 201.807 24.03 201.667 24.41C201.547 24.77 201.457 25.14 201.397 25.52H207.307ZM224.587 23.18C224.187 23.08 223.717 22.98 223.177 22.88C222.637 22.76 222.057 22.7 221.437 22.7C221.157 22.7 220.817 22.73 220.417 22.79C220.037 22.83 219.747 22.88 219.547 22.94V35H215.077V20.06C215.877 19.78 216.817 19.52 217.897 19.28C218.997 19.02 220.217 18.89 221.557 18.89C221.797 18.89 222.087 18.91 222.427 18.95C222.767 18.97 223.107 19.01 223.447 19.07C223.787 19.11 224.127 19.17 224.467 19.25C224.807 19.31 225.097 19.39 225.337 19.49L224.587 23.18Z" fill="#FDFBFB"/>
</svg>
